<svg width="36" height="60" viewBox="0 0 36 60" fill="none" xmlns="http://www.w3.org/2000/svg">
<path d="M17.7862 14.5001C13.071 14.505 8.55031 16.3969 5.2159 19.7606C1.88148 23.1244 0.00567159 27.6853 0 32.4427V59.928H10.4923V48.8103L11.3188 49.1377C13.7558 50.1084 16.3753 50.5239 18.9901 50.3545C21.6048 50.185 24.1501 49.4348 26.444 48.1575C28.738 46.8801 30.7239 45.1072 32.2598 42.9654C33.7957 40.8237 34.8436 38.366 35.3287 35.7681C35.8138 33.1702 35.724 30.4962 35.0658 27.9374C34.4075 25.3786 33.1972 22.9981 31.5211 20.9661C29.8451 18.9342 27.7448 17.3009 25.3704 16.1831C22.9961 15.0653 20.4063 14.4906 17.7862 14.5001V14.5001ZM17.7862 39.8051C16.3437 39.8051 14.9337 39.3735 13.7343 38.565C12.5349 37.7565 11.6 36.6073 11.0479 35.2628C10.4957 33.9182 10.3511 32.4387 10.6323 31.0112C10.9135 29.5838 11.6078 28.2725 12.6276 27.2431C13.6473 26.2138 14.9467 25.5127 16.3613 25.2283C17.776 24.944 19.2425 25.0893 20.5753 25.6459C21.9081 26.2024 23.0475 27.1452 23.8493 28.355C24.6511 29.5648 25.0794 30.9873 25.08 32.4427C25.0792 34.3945 24.3106 36.2662 22.943 37.6467C21.5754 39.0271 19.7207 39.8034 17.7862 39.8051V39.8051Z" fill="#0D1317"/>
<path d="M10.4923 0H0V10.5865H10.4923V0Z" fill="white"/>
</svg>
